<svg width="184" height="136" viewBox="0 0 184 136" fill="none" xmlns="http://www.w3.org/2000/svg">
<circle cx="94" cy="64" r="64" fill="#E5F0F0"/>
<circle cx="28" cy="12" r="6" fill="#F2F4F7"/>
<circle cx="25" cy="112" r="8" fill="#F2F4F7"/>
<circle cx="172" cy="96" r="8" fill="#F2F4F7"/>
<circle cx="157" cy="9" r="5" fill="#F2F4F7"/>
<g filter="url(#filter0_dd_352_9906)">
<path d="M52.9372 95.3137L92.8147 76.7185C94.8169 75.7848 95.6831 73.4049 94.7495 71.4028L71.1994 20.8995L55.2523 15.0953L22.6252 30.3095C20.6231 31.2431 19.7569 33.6231 20.6905 35.6252L47.6215 93.3789C48.5551 95.3811 50.935 96.2473 52.9372 95.3137Z" fill="url(#paint0_linear_352_9906)"/>
<path d="M55.252 15.0957L71.1991 20.9L60.3234 25.9714L55.252 15.0957Z" fill="#C8D0D0"/>
</g>
<g filter="url(#filter1_dd_352_9906)">
<path d="M72 81.7241H116C118.209 81.7241 120 79.9333 120 77.7241V22L108 10H72C69.7909 10 68 11.7909 68 14V77.7241C68 79.9333 69.7909 81.7241 72 81.7241Z" fill="url(#paint1_linear_352_9906)"/>
<path d="M108 10L120 22H108V10Z" fill="#C8D0D0"/>
</g>
<g filter="url(#filter2_dd_352_9906)">
<path d="M94.6258 76.6946L134.503 95.2898C136.506 96.2234 138.885 95.3572 139.819 93.3551L163.369 42.8518L157.565 26.9047L124.938 11.6905C122.936 10.7569 120.556 11.6231 119.622 13.6252L92.691 71.3789C91.7574 73.3811 92.6236 75.761 94.6258 76.6946Z" fill="url(#paint2_linear_352_9906)"/>
<path d="M157.564 26.9043L163.369 42.8514L152.493 37.78L157.564 26.9043Z" fill="#C8D0D0"/>
</g>
<g filter="url(#filter3_b_352_9906)">
<rect x="66" y="68" width="56" height="56" rx="28" fill="#609696"/>
<g clip-path="url(#clip0_352_9906)">
<path d="M98.6664 100.667L93.9997 96.0001M93.9997 96.0001L89.333 100.667M93.9997 96.0001V106.5M103.788 103.455C104.926 102.835 105.825 101.853 106.343 100.665C106.861 99.4772 106.969 98.1505 106.649 96.8945C106.329 95.6386 105.6 94.5248 104.577 93.7291C103.555 92.9333 102.296 92.5009 101 92.5001H99.5297C99.1766 91.1342 98.5184 89.8661 97.6046 88.7912C96.6909 87.7163 95.5454 86.8626 94.2542 86.2941C92.963 85.7257 91.5597 85.4573 90.1498 85.5093C88.74 85.5612 87.3603 85.9321 86.1144 86.594C84.8685 87.2559 83.7889 88.1917 82.9568 89.3309C82.1246 90.4701 81.5615 91.7832 81.3099 93.1714C81.0582 94.5595 81.1245 95.9867 81.5038 97.3455C81.8831 98.7044 82.5655 99.9596 83.4997 101.017" stroke="white" stroke-width="2.33333" stroke-linecap="round" stroke-linejoin="round"/>
</g>
</g>
<defs>
<filter id="filter0_dd_352_9906" x="-1" y="10.0234" width="117.439" height="126.98" filterUnits="userSpaceOnUse" color-interpolation-filters="sRGB">
<feFlood flood-opacity="0" result="BackgroundImageFix"/>
<feColorMatrix in="SourceAlpha" type="matrix" values="0 0 0 0 0 0 0 0 0 0 0 0 0 0 0 0 0 0 127 0" result="hardAlpha"/>
<feMorphology radius="4" operator="erode" in="SourceAlpha" result="effect1_dropShadow_352_9906"/>
<feOffset dy="8"/>
<feGaussianBlur stdDeviation="4"/>
<feColorMatrix type="matrix" values="0 0 0 0 0.0627451 0 0 0 0 0.0941176 0 0 0 0 0.156863 0 0 0 0.04 0"/>
<feBlend mode="normal" in2="BackgroundImageFix" result="effect1_dropShadow_352_9906"/>
<feColorMatrix in="SourceAlpha" type="matrix" values="0 0 0 0 0 0 0 0 0 0 0 0 0 0 0 0 0 0 127 0" result="hardAlpha"/>
<feMorphology radius="4" operator="erode" in="SourceAlpha" result="effect2_dropShadow_352_9906"/>
<feOffset dy="20"/>
<feGaussianBlur stdDeviation="12"/>
<feColorMatrix type="matrix" values="0 0 0 0 0.0627451 0 0 0 0 0.0941176 0 0 0 0 0.156863 0 0 0 0.1 0"/>
<feBlend mode="normal" in2="effect1_dropShadow_352_9906" result="effect2_dropShadow_352_9906"/>
<feBlend mode="normal" in="SourceGraphic" in2="effect2_dropShadow_352_9906" result="shape"/>
</filter>
<filter id="filter1_dd_352_9906" x="48" y="10" width="92" height="111.725" filterUnits="userSpaceOnUse" color-interpolation-filters="sRGB">
<feFlood flood-opacity="0" result="BackgroundImageFix"/>
<feColorMatrix in="SourceAlpha" type="matrix" values="0 0 0 0 0 0 0 0 0 0 0 0 0 0 0 0 0 0 127 0" result="hardAlpha"/>
<feMorphology radius="4" operator="erode" in="SourceAlpha" result="effect1_dropShadow_352_9906"/>
<feOffset dy="8"/>
<feGaussianBlur stdDeviation="4"/>
<feColorMatrix type="matrix" values="0 0 0 0 0.0627451 0 0 0 0 0.0941176 0 0 0 0 0.156863 0 0 0 0.04 0"/>
<feBlend mode="normal" in2="BackgroundImageFix" result="effect1_dropShadow_352_9906"/>
<feColorMatrix in="SourceAlpha" type="matrix" values="0 0 0 0 0 0 0 0 0 0 0 0 0 0 0 0 0 0 127 0" result="hardAlpha"/>
<feMorphology radius="4" operator="erode" in="SourceAlpha" result="effect2_dropShadow_352_9906"/>
<feOffset dy="20"/>
<feGaussianBlur stdDeviation="12"/>
<feColorMatrix type="matrix" values="0 0 0 0 0.0627451 0 0 0 0 0.0941176 0 0 0 0 0.156863 0 0 0 0.1 0"/>
<feBlend mode="normal" in2="effect1_dropShadow_352_9906" result="effect2_dropShadow_352_9906"/>
<feBlend mode="normal" in="SourceGraphic" in2="effect2_dropShadow_352_9906" result="shape"/>
</filter>
<filter id="filter2_dd_352_9906" x="71" y="10" width="117.441" height="126.98" filterUnits="userSpaceOnUse" color-interpolation-filters="sRGB">
<feFlood flood-opacity="0" result="BackgroundImageFix"/>
<feColorMatrix in="SourceAlpha" type="matrix" values="0 0 0 0 0 0 0 0 0 0 0 0 0 0 0 0 0 0 127 0" result="hardAlpha"/>
<feMorphology radius="4" operator="erode" in="SourceAlpha" result="effect1_dropShadow_352_9906"/>
<feOffset dy="8"/>
<feGaussianBlur stdDeviation="4"/>
<feColorMatrix type="matrix" values="0 0 0 0 0.0627451 0 0 0 0 0.0941176 0 0 0 0 0.156863 0 0 0 0.04 0"/>
<feBlend mode="normal" in2="BackgroundImageFix" result="effect1_dropShadow_352_9906"/>
<feColorMatrix in="SourceAlpha" type="matrix" values="0 0 0 0 0 0 0 0 0 0 0 0 0 0 0 0 0 0 127 0" result="hardAlpha"/>
<feMorphology radius="4" operator="erode" in="SourceAlpha" result="effect2_dropShadow_352_9906"/>
<feOffset dy="20"/>
<feGaussianBlur stdDeviation="12"/>
<feColorMatrix type="matrix" values="0 0 0 0 0.0627451 0 0 0 0 0.0941176 0 0 0 0 0.156863 0 0 0 0.1 0"/>
<feBlend mode="normal" in2="effect1_dropShadow_352_9906" result="effect2_dropShadow_352_9906"/>
<feBlend mode="normal" in="SourceGraphic" in2="effect2_dropShadow_352_9906" result="shape"/>
</filter>
<filter id="filter3_b_352_9906" x="58" y="60" width="72" height="72" filterUnits="userSpaceOnUse" color-interpolation-filters="sRGB">
<feFlood flood-opacity="0" result="BackgroundImageFix"/>
<feGaussianBlur in="BackgroundImageFix" stdDeviation="4"/>
<feComposite in2="SourceAlpha" operator="in" result="effect1_backgroundBlur_352_9906"/>
<feBlend mode="normal" in="SourceGraphic" in2="effect1_backgroundBlur_352_9906" result="shape"/>
</filter>
<linearGradient id="paint0_linear_352_9906" x1="50.5944" y1="95.4694" x2="18.8151" y2="38.1371" gradientUnits="userSpaceOnUse">
<stop stop-color="#E4E7EC"/>
<stop offset="1" stop-color="#F9FAFB"/>
</linearGradient>
<linearGradient id="paint1_linear_352_9906" x1="69.8109" y1="80.8751" x2="65.2388" y2="15.484" gradientUnits="userSpaceOnUse">
<stop stop-color="#E4E7EC"/>
<stop offset="1" stop-color="#F9FAFB"/>
</linearGradient>
<linearGradient id="paint2_linear_352_9906" x1="93.0006" y1="75" x2="116.492" y2="13.8032" gradientUnits="userSpaceOnUse">
<stop stop-color="#E4E7EC"/>
<stop offset="1" stop-color="#F9FAFB"/>
</linearGradient>
<clipPath id="clip0_352_9906">
<rect width="28" height="28" fill="white" transform="translate(80 82)"/>
</clipPath>
</defs>
</svg>
