<svg width="24" height="24" viewBox="0 0 24 24" fill="none" xmlns="http://www.w3.org/2000/svg">
<g clip-path="url(#clip0_76_1763)">
<rect width="24" height="24" rx="12" fill="#FFB320"/>
<circle cx="12" cy="12" r="8" fill="white"/>
<path d="M19.5001 0.75H4.50009C3.50565 0.750398 2.55206 1.14561 1.84888 1.84879C1.1457 2.55196 0.750489 3.50556 0.750092 4.5V19.5C0.750489 20.4944 1.1457 21.448 1.84888 22.1512C2.55206 22.8544 3.50565 23.2496 4.50009 23.25H19.5001C20.4945 23.2496 21.4481 22.8544 22.1513 22.1512C22.8545 21.448 23.2497 20.4944 23.2501 19.5V4.5C23.2497 3.50556 22.8545 2.55196 22.1513 1.84879C21.4481 1.14561 20.4945 0.750398 19.5001 0.75ZM6.75009 13.5C6.75009 13.6989 6.67107 13.8897 6.53042 14.0303C6.38977 14.171 6.199 14.25 6.00009 14.25C5.80118 14.25 5.61041 14.171 5.46976 14.0303C5.32911 13.8897 5.25009 13.6989 5.25009 13.5V10.5C5.25009 10.3011 5.32911 10.1103 5.46976 9.96967C5.61041 9.82902 5.80118 9.75 6.00009 9.75C6.199 9.75 6.38977 9.82902 6.53042 9.96967C6.67107 10.1103 6.75009 10.3011 6.75009 10.5V13.5ZM9.75009 15C9.75009 15.1989 9.67107 15.3897 9.53042 15.5303C9.38977 15.671 9.199 15.75 9.00009 15.75C8.80118 15.75 8.61041 15.671 8.46976 15.5303C8.32911 15.3897 8.25009 15.1989 8.25009 15V9C8.25009 8.80109 8.32911 8.61032 8.46976 8.46967C8.61041 8.32902 8.80118 8.25 9.00009 8.25C9.199 8.25 9.38977 8.32902 9.53042 8.46967C9.67107 8.61032 9.75009 8.80109 9.75009 9V15ZM12.7501 16.5C12.7501 16.6989 12.6711 16.8897 12.5304 17.0303C12.3898 17.171 12.199 17.25 12.0001 17.25C11.8012 17.25 11.6104 17.171 11.4698 17.0303C11.3291 16.8897 11.2501 16.6989 11.2501 16.5V7.5C11.2501 7.30109 11.3291 7.11032 11.4698 6.96967C11.6104 6.82902 11.8012 6.75 12.0001 6.75C12.199 6.75 12.3898 6.82902 12.5304 6.96967C12.6711 7.11032 12.7501 7.30109 12.7501 7.5V16.5ZM15.7501 15C15.7501 15.1989 15.6711 15.3897 15.5304 15.5303C15.3898 15.671 15.199 15.75 15.0001 15.75C14.8012 15.75 14.6104 15.671 14.4698 15.5303C14.3291 15.3897 14.2501 15.1989 14.2501 15V9C14.2501 8.80109 14.3291 8.61032 14.4698 8.46967C14.6104 8.32902 14.8012 8.25 15.0001 8.25C15.199 8.25 15.3898 8.32902 15.5304 8.46967C15.6711 8.61032 15.7501 8.80109 15.7501 9V15ZM18.7501 13.5C18.7501 13.6989 18.6711 13.8897 18.5304 14.0303C18.3898 14.171 18.199 14.25 18.0001 14.25C17.8012 14.25 17.6104 14.171 17.4698 14.0303C17.3291 13.8897 17.2501 13.6989 17.2501 13.5V10.5C17.2501 10.3011 17.3291 10.1103 17.4698 9.96967C17.6104 9.82902 17.8012 9.75 18.0001 9.75C18.199 9.75 18.3898 9.82902 18.5304 9.96967C18.6711 10.1103 18.7501 10.3011 18.7501 10.5V13.5Z" fill="#FFB320"/>
</g>
<defs>
<clipPath id="clip0_76_1763">
<rect width="24" height="24" rx="12" fill="white"/>
</clipPath>
</defs>
</svg>
