<svg width="24" height="25" viewBox="0 0 24 25" fill="none" xmlns="http://www.w3.org/2000/svg">
<g clip-path="url(#clip0_352_7974)">
<rect width="24" height="24" rx="12" fill="#00B2A1"/>
<circle cx="12" cy="12" r="8" fill="white"/>
<path d="M19.5 0.75H4.5C3.50556 0.750398 2.55196 1.14561 1.84879 1.84879C1.14561 2.55196 0.750398 3.50556 0.75 4.5V19.5C0.750398 20.4944 1.14561 21.448 1.84879 22.1512C2.55196 22.8544 3.50556 23.2496 4.5 23.25H19.5C20.4944 23.2496 21.448 22.8544 22.1512 22.1512C22.8544 21.448 23.2496 20.4944 23.25 19.5V4.5C23.2496 3.50556 22.8544 2.55196 22.1512 1.84879C21.448 1.14561 20.4944 0.750398 19.5 0.75ZM6.75 13.5C6.75 13.6989 6.67098 13.8897 6.53033 14.0303C6.38968 14.171 6.19891 14.25 6 14.25C5.80109 14.25 5.61032 14.171 5.46967 14.0303C5.32902 13.8897 5.25 13.6989 5.25 13.5V10.5C5.25 10.3011 5.32902 10.1103 5.46967 9.96967C5.61032 9.82902 5.80109 9.75 6 9.75C6.19891 9.75 6.38968 9.82902 6.53033 9.96967C6.67098 10.1103 6.75 10.3011 6.75 10.5V13.5ZM9.75 15C9.75 15.1989 9.67098 15.3897 9.53033 15.5303C9.38968 15.671 9.19891 15.75 9 15.75C8.80109 15.75 8.61032 15.671 8.46967 15.5303C8.32902 15.3897 8.25 15.1989 8.25 15V9C8.25 8.80109 8.32902 8.61032 8.46967 8.46967C8.61032 8.32902 8.80109 8.25 9 8.25C9.19891 8.25 9.38968 8.32902 9.53033 8.46967C9.67098 8.61032 9.75 8.80109 9.75 9V15ZM12.75 16.5C12.75 16.6989 12.671 16.8897 12.5303 17.0303C12.3897 17.171 12.1989 17.25 12 17.25C11.8011 17.25 11.6103 17.171 11.4697 17.0303C11.329 16.8897 11.25 16.6989 11.25 16.5V7.5C11.25 7.30109 11.329 7.11032 11.4697 6.96967C11.6103 6.82902 11.8011 6.75 12 6.75C12.1989 6.75 12.3897 6.82902 12.5303 6.96967C12.671 7.11032 12.75 7.30109 12.75 7.5V16.5ZM15.75 15C15.75 15.1989 15.671 15.3897 15.5303 15.5303C15.3897 15.671 15.1989 15.75 15 15.75C14.8011 15.75 14.6103 15.671 14.4697 15.5303C14.329 15.3897 14.25 15.1989 14.25 15V9C14.25 8.80109 14.329 8.61032 14.4697 8.46967C14.6103 8.32902 14.8011 8.25 15 8.25C15.1989 8.25 15.3897 8.32902 15.5303 8.46967C15.671 8.61032 15.75 8.80109 15.75 9V15ZM18.75 13.5C18.75 13.6989 18.671 13.8897 18.5303 14.0303C18.3897 14.171 18.1989 14.25 18 14.25C17.8011 14.25 17.6103 14.171 17.4697 14.0303C17.329 13.8897 17.25 13.6989 17.25 13.5V10.5C17.25 10.3011 17.329 10.1103 17.4697 9.96967C17.6103 9.82902 17.8011 9.75 18 9.75C18.1989 9.75 18.3897 9.82902 18.5303 9.96967C18.671 10.1103 18.75 10.3011 18.75 10.5V13.5Z" fill="#00B2A1"/>
</g>
<g clip-path="url(#clip1_352_7974)">
<mask id="mask0_352_7974" style="mask-type:luminance" maskUnits="userSpaceOnUse" x="13" y="13" width="10" height="11">
<path d="M13.0039 13.6283H23.0007V23.625H13.0039V13.6283Z" fill="white"/>
</mask>
<g mask="url(#mask0_352_7974)">
<path d="M20.9723 14.9816H20.7022L18.0028 15.3721L15.3034 14.9816H14.9942C14.6609 14.9816 14.3906 14.7113 14.3906 14.378C14.3906 14.0447 14.6609 13.7744 14.9942 13.7744H20.9723C21.3057 13.7744 21.5759 14.0447 21.5759 14.378C21.5759 14.7113 21.3057 14.9816 20.9723 14.9816Z" fill="#B98080"/>
<path d="M21.0096 13.7743H20.4238C20.7572 13.7743 21.0274 14.0445 21.0274 14.3779C21.0274 14.7112 20.7572 14.9814 20.4238 14.9814H21.0096C21.3429 14.9814 21.6132 14.7112 21.6132 14.3779C21.6132 14.0445 21.3429 13.7743 21.0096 13.7743Z" fill="#AE6C6C"/>
<path d="M20.6625 15.7386V14.9809H15.3027V15.7386C15.3027 16.914 16.054 17.9138 17.1026 18.2843C17.2473 18.3355 17.344 18.4722 17.344 18.6257C17.344 18.7792 17.2473 18.916 17.1026 18.9671C16.054 19.3376 15.3027 20.3374 15.3027 21.5128V22.2705H20.6625V21.5128C20.6625 20.3374 19.9112 19.3376 18.8626 18.9671C18.7179 18.916 18.6212 18.7792 18.6212 18.6257H18.6602C18.6602 18.4722 18.7179 18.3355 18.8626 18.2843C19.9112 17.9138 20.6625 16.914 20.6625 15.7386Z" fill="#EFEDEF"/>
<path d="M15.3027 14.9809V15.3636H19.7407C19.9479 15.3636 20.1158 15.5315 20.1158 15.7386C20.1158 16.9104 19.3691 17.9076 18.3257 18.2809C18.1966 18.327 18.0979 18.4372 18.0783 18.573C18.0531 18.7471 18.1548 18.9102 18.316 18.9671C19.3645 19.3376 20.1158 20.3374 20.1158 21.5128V22.2705H20.7015V21.5128C20.7015 20.341 19.9549 19.3438 18.9115 18.9706C18.7824 18.9244 18.6836 18.8142 18.664 18.6785C18.6389 18.5044 18.7406 18.3413 18.9017 18.2843C19.9502 17.9138 20.7015 16.914 20.7015 15.7386V15.3636V14.9809H15.3027Z" fill="#D7D0D6"/>
<path d="M20.9723 23.4785H14.9942C14.6609 23.4785 14.3906 23.2083 14.3906 22.8749C14.3906 22.5416 14.6609 22.2714 14.9942 22.2714H15.3034L18.0028 21.8809L20.7022 22.2714H20.9723C21.3057 22.2714 21.5759 22.5416 21.5759 22.8749C21.5759 23.2083 21.3057 23.4785 20.9723 23.4785Z" fill="#B98080"/>
<path d="M21.0096 22.2714H20.4238C20.7572 22.2714 21.0274 22.5416 21.0274 22.8749C21.0274 23.2083 20.7572 23.4785 20.4238 23.4785H21.0096C21.3429 23.4785 21.6132 23.2083 21.6132 22.8749C21.6132 22.5416 21.3429 22.2714 21.0096 22.2714Z" fill="#AE6C6C"/>
<path d="M19.302 20.1529H19.0177C18.7318 20.1529 18.4488 19.9461 18.402 19.664L18.2861 18.9644C18.227 18.6083 18.5017 18.2843 18.8626 18.2843C19.5631 18.0368 20.1305 17.5083 20.4303 16.8343H15.5349C15.8347 17.5083 16.4021 18.0368 17.1026 18.2843C17.4635 18.2843 17.7382 18.6083 17.6791 18.9644L17.5632 19.664C17.5164 19.9461 17.2725 20.1529 16.9866 20.1529H16.6632C15.9179 20.1529 15.3068 20.7526 15.3028 21.4979C15.3028 21.5029 15.3027 21.5078 15.3027 21.5128V22.2705H20.6625V21.5128C20.6625 21.5078 20.6625 21.5029 20.6624 21.4979C20.6584 20.7526 20.0473 20.1529 19.302 20.1529Z" fill="#FED402"/>
<path d="M20.7026 21.4979C20.6985 20.7526 20.0875 20.1529 19.3421 20.1529H19.0188C18.7329 20.1529 18.4889 19.9461 18.4422 19.664L18.3262 18.9644C18.2672 18.6083 18.5418 18.2843 18.9028 18.2843C19.6032 18.0368 20.1706 17.5083 20.4704 16.8343H19.8846C19.5849 17.5083 19.0175 18.0368 18.317 18.2843C17.9561 18.2843 17.6814 18.6083 17.7404 18.9644L17.8564 19.664C17.9032 19.9461 18.1471 20.1529 18.433 20.1529H18.7564C19.5017 20.1529 20.1128 20.7526 20.1168 21.4979C20.1168 21.5029 20.1168 21.5078 20.1168 21.5128V22.2705H20.7026V21.5128C20.7026 21.5078 20.7026 21.5029 20.7026 21.4979Z" fill="#FAC600"/>
<path d="M21.0114 14.9814H14.9942C14.6609 14.9814 14.3906 14.7112 14.3906 14.3779C14.3906 14.0445 14.6609 13.7743 14.9942 13.7743H21.0114C21.3447 13.7743 21.615 14.0445 21.615 14.3779C21.615 14.7112 21.3447 14.9814 21.0114 14.9814Z" stroke="black" stroke-width="0.234375" stroke-miterlimit="10" stroke-linecap="round" stroke-linejoin="round"/>
<path d="M20.7028 22.2705V21.5128C20.7028 21.5078 20.7028 21.5029 20.7027 21.4979C20.6987 20.7526 20.0877 20.1529 19.3423 20.1529H19.019C18.7331 20.1529 18.4891 19.9461 18.4424 19.664L18.3264 18.9644C18.2673 18.6083 18.542 18.2843 18.903 18.2843C19.6034 18.0368 20.1708 17.5083 20.4706 16.8343H19.5368" stroke="black" stroke-width="0.234375" stroke-miterlimit="10" stroke-linecap="round" stroke-linejoin="round"/>
<path d="M18.8973 16.8343H15.5349C15.8347 17.5083 16.4021 18.0368 17.1026 18.2843C17.4635 18.2843 17.7382 18.6083 17.6791 18.9644L17.5632 19.664C17.5164 19.9461 17.2725 20.1529 16.9866 20.1529H16.6632C15.9179 20.1529 15.3068 20.7526 15.3028 21.4979C15.3028 21.5029 15.3027 21.5078 15.3027 21.5128V22.2705" stroke="black" stroke-width="0.234375" stroke-miterlimit="10" stroke-linecap="round" stroke-linejoin="round"/>
<path d="M19.6724 22.2714H21.0114C21.3447 22.2714 21.615 22.5416 21.615 22.8749C21.615 23.2083 21.3447 23.4785 21.0114 23.4785H14.9942C14.6609 23.4785 14.3906 23.2083 14.3906 22.8749C14.3906 22.5416 14.6609 22.2714 14.9942 22.2714H19.0332" stroke="black" stroke-width="0.234375" stroke-miterlimit="10" stroke-linecap="round" stroke-linejoin="round"/>
<path d="M20.7015 22.2705V21.5128C20.7015 20.3374 19.9502 19.3376 18.9017 18.9671C18.757 18.916 18.6602 18.7792 18.6602 18.6257C18.6602 18.4722 18.757 18.3355 18.9017 18.2843C19.9502 17.9138 20.7015 16.914 20.7015 15.7386V14.9809H15.3027V15.4419" stroke="black" stroke-width="0.234375" stroke-miterlimit="10" stroke-linecap="round" stroke-linejoin="round"/>
<path d="M15.3241 16.0801C15.4535 17.1047 16.1572 17.9503 17.1026 18.2843C17.2473 18.3355 17.344 18.4722 17.344 18.6257C17.344 18.7792 17.2473 18.916 17.1026 18.9671C16.054 19.3376 15.3027 20.3374 15.3027 21.5128V22.2705" stroke="black" stroke-width="0.234375" stroke-miterlimit="10" stroke-linecap="round" stroke-linejoin="round"/>
</g>
</g>
<defs>
<clipPath id="clip0_352_7974">
<rect width="24" height="24" rx="12" fill="white"/>
</clipPath>
<clipPath id="clip1_352_7974">
<rect width="10" height="11.2463" fill="white" transform="translate(13 13)"/>
</clipPath>
</defs>
</svg>
